<svg width="72" height="71" viewBox="0 0 72 71" fill="none" xmlns="http://www.w3.org/2000/svg">
<g clip-path="url(#clip0_6_264)">
<path d="M61.9461 59.1438C75.1242 45.9669 75.1242 24.6029 61.9461 11.426C48.7679 -1.75095 27.402 -1.75094 14.2238 11.426C1.04572 24.6029 1.04571 45.9669 14.2238 59.1438C27.402 72.3208 48.7679 72.3208 61.9461 59.1438Z" fill="#1B293B"/>
<path d="M58.2918 55.4899C69.4517 44.331 69.4517 26.2388 58.2918 15.0799C47.1318 3.92105 29.038 3.92106 17.8781 15.0799C6.71822 26.2388 6.71822 44.331 17.8781 55.4899C29.038 66.6488 47.1318 66.6488 58.2918 55.4899Z" fill="#C9AE5B"/>
<path d="M38.0841 6.70971C43.7364 6.70971 49.2618 8.38566 53.9615 11.5256C58.6613 14.6656 62.3242 19.1285 64.4873 24.3501C66.6503 29.5717 67.2163 35.3174 66.1136 40.8606C65.0109 46.4038 62.289 51.4955 58.2922 55.4919C54.2954 59.4883 49.2032 62.2099 43.6595 63.3125C38.1158 64.4152 32.3696 63.8493 27.1476 61.6864C21.9255 59.5236 17.4622 55.8609 14.3219 51.1616C11.1817 46.4623 9.50556 40.9375 9.50556 35.2857C9.50532 31.533 10.2444 27.8169 11.6805 24.3498C13.1166 20.8827 15.2217 17.7325 17.8755 15.0789C20.5293 12.4253 23.6799 10.3204 27.1473 8.88444C30.6147 7.44845 34.3311 6.70947 38.0841 6.70971ZM38.0841 6.16346C32.3248 6.16401 26.6949 7.87206 21.9062 11.0717C17.1176 14.2713 13.3852 18.8187 11.181 24.1391C8.97687 29.4596 8.39984 35.314 9.52291 40.9623C10.646 46.6106 13.4187 51.7991 17.4906 55.8719C22.9693 61.2478 30.349 64.2436 38.025 64.2077C45.701 64.1718 53.0524 61.1071 58.4805 55.6802C63.9087 50.2533 66.9746 42.9029 67.0115 35.2277C67.0484 27.5524 64.0534 20.1729 58.6777 14.694C55.9797 11.9812 52.7703 9.83042 49.2355 8.36615C45.7006 6.90188 41.9103 6.15321 38.0841 6.16346Z" fill="#E2D8A7"/>
<mask id="mask0_6_264" style="mask-type:luminance" maskUnits="userSpaceOnUse" x="0" y="4" width="67" height="60">
<path d="M66.6609 35.2857C66.6568 40.6069 65.1675 45.8214 62.3606 50.3422C59.5536 54.8631 55.5404 58.5108 50.7727 60.8748C46.005 63.2389 40.6721 64.2254 35.3741 63.7234C30.0761 63.2213 25.0234 61.2507 20.7847 58.0332C20.7847 58.0332 13.2586 62.9895 9.14682 59.59C-0.364196 51.7259 0.1821 25.2548 0.1821 19.1769C0.1821 10.8448 8.24361 5.29677 16.3889 4.3117C23.6728 3.43225 30.6345 6.70972 38.0841 6.70972C41.837 6.70972 45.5532 7.44888 49.0204 8.88498C52.4876 10.3211 55.638 12.426 58.2916 15.0795C60.9452 17.7331 63.0501 20.8833 64.4861 24.3503C65.9221 27.8173 66.6611 31.5331 66.6609 35.2857Z" fill="white"/>
</mask>
<g mask="url(#mask0_6_264)">
<path d="M27.2529 52.9094C27.2529 52.9094 24.4959 60.4294 17.7255 63.8598C17.7255 63.8598 22.2087 71.5291 39.4298 73.328C56.6509 75.127 66.5152 59.8194 71.5083 51.267C71.5083 51.267 69.019 42.4925 62.7403 35.2237C55.4235 26.7533 51.3973 25.0272 45.4008 24.1568L27.2529 52.9094Z" fill="#1B293B"/>
<path d="M68.7186 51.2506C68.7186 51.2506 68.2906 52.0135 67.4894 53.2408C64.8654 57.2557 58.2442 66.2542 49.4343 69.8649C47.6217 70.6316 45.6957 71.096 43.7328 71.2396C27.7464 72.2774 23.6491 65.2764 23.6491 65.2764C23.6491 65.2764 28.7861 58.827 29.6365 53.7306C29.9297 52.0281 25.0294 49.7812 24.5924 48.4775C24.5924 48.4775 28.5458 45.3402 33.1693 41.3763C36.8695 38.2008 40.9995 34.4991 43.8748 31.4528C45.6376 29.581 46.9286 27.955 47.3711 26.8498C47.3711 26.8498 49.3742 27.4215 52.1458 28.9729C55.3536 30.7651 58.2181 33.1121 60.6061 35.9047C66.5407 42.8712 68.7186 51.2506 68.7186 51.2506Z" fill="#838891"/>
<path d="M68.7186 51.2506C68.7186 51.2506 68.2906 52.0135 67.4894 53.2408C64.6213 42.0846 55.5546 35.6389 55.5546 35.6389C58.2078 37.0318 61.6823 39.754 61.6823 39.754C58.1186 34.3261 50.8674 29.7394 50.8674 29.7394L52.1421 28.9802C55.3499 30.7724 58.2144 33.1194 60.6024 35.912C66.5407 42.8712 68.7186 51.2506 68.7186 51.2506Z" fill="white"/>
<path d="M49.4325 69.8722C47.6199 70.6389 45.6939 71.1033 43.731 71.2469C27.7445 72.2847 24.8346 64.6664 24.8346 64.6664C24.8346 64.6664 28.2052 61.1268 29.0556 53.716C27.1436 55.149 19.8396 56.582 14.7045 56.531C10.762 56.4873 10.0409 52.822 9.42359 51.3617C9.1891 50.7641 9.02116 50.1425 8.92282 49.5081L13.8103 47.0409C16.5145 47.2066 18.8727 45.0089 19.6266 42.1611C20.3805 39.3133 21.036 36.979 22.9827 33.6196C22.9827 33.6196 23.6109 34.53 23.4598 35.0071C23.2977 35.5242 23.7457 36.2125 24.6634 35.0362C25.7415 33.6506 29.1704 29.0275 31.8727 28.2537C31.7908 28.3028 31.3119 29.754 31.3119 29.754C32.6048 29.2915 34.8591 30.0763 34.8591 30.0763C32.6539 30.4532 31.3519 32.2759 31.7762 32.2795C31.7762 32.2795 32.8306 35.4004 31.5723 37.7638C30.0062 40.7026 23.5927 41.4182 21.2946 43.5358C18.8691 45.7736 17.1974 47.3814 17.2065 48.3901C17.2156 49.3988 18.9728 49.7958 18.9728 49.7958C18.9728 49.7958 22.7204 49.6519 26.2003 46.2707C29.6803 42.8894 31.7125 42.2867 31.7125 42.2867C31.7125 42.2867 32.2096 42.5271 33.4187 43.1462C35.0922 43.9928 37.4959 43.4466 39.1658 42.4524C42.0939 40.7081 42.0393 37.0391 42.0211 36.7897C42.0721 36.857 42.826 37.8457 43.5744 39.7248C44.9583 43.1953 47.1344 48.4429 41.3309 68.4264C41.3309 68.4264 49.7712 62.5233 49.5909 44.9542C49.5909 44.9542 53.6098 61.429 49.4325 69.8722Z" fill="#50535A"/>
<path d="M20.6755 32.0118C18.8217 31.6713 12.7997 30.6899 7.2202 26.2762C1.6407 21.8626 1.09258 19.0094 0.968752 18.0734C0.728382 16.4238 1.7627 15.9668 3.99523 17.0538C6.01653 18.037 13.0401 21.0833 18.8636 21.3728C24.7599 21.6641 25.6012 21.5421 25.5776 24.8323C25.5539 28.1226 25.1988 31.7515 23.4415 32.2686C21.6843 32.7857 20.6755 32.0118 20.6755 32.0118Z" fill="#1B293B"/>
<path d="M21.0397 23.4449C19.4408 23.6998 14.8374 23.0407 10.9896 21.8826C7.1419 20.7246 3.08292 18.7035 3.08292 18.7035C3.08292 18.7035 4.24835 21.9536 9.03754 25.1328C13.8267 28.3119 20.7301 29.8068 20.7301 29.8068L21.0397 23.4449Z" fill="#A59688"/>
<path d="M20.9414 25.3549L21.0342 23.4449C19.4354 23.6998 14.8319 23.0406 10.9842 21.8826C9.09856 21.2926 7.24842 20.5947 5.44293 19.7923C5.90364 20.0927 11.6543 23.8218 20.9414 25.3549Z" fill="white"/>
<path d="M18.5067 25.5916C16.509 25.6245 14.5175 25.3601 12.5976 24.8069C10.8339 24.3409 9.10318 23.7582 7.41687 23.0625C6.73316 22.7779 6.06458 22.4582 5.41379 22.1048C6.49879 23.2511 7.7151 24.2656 9.03755 25.1273C13.8267 28.3065 20.7301 29.8014 20.7301 29.8014L20.9413 25.3549C20.1355 25.4845 19.3224 25.5635 18.5067 25.5916Z" fill="#625C58"/>
<path d="M42.0138 36.7805L52.916 29.8614L37.3721 19.7668C34.7353 18.7289 30.5306 19.2205 29.4818 20.6444C29.4818 20.6444 27.5533 19.7249 24.831 20.3531C24.0608 20.5481 23.3207 20.847 22.6312 21.2417C22.196 21.0031 21.4785 20.8174 20.4132 21.198C18.4903 21.8826 17.7327 22.6382 17.4141 24.3735C17.0954 26.1087 16.6584 27.3487 15.096 29.4718C13.5336 31.5948 13.2932 33.412 13.5263 35.455C13.7594 37.4979 11.6543 39.9324 10.7183 40.932C9.78232 41.9316 7.44053 44.0529 7.10365 47.0281C6.76677 50.0033 7.95587 56.043 10.9569 57.2575C18.2226 60.1963 23.8021 55.7699 27.1636 54.5918C30.5252 53.4137 32.9781 52.5507 35.9153 52.4068C38.8526 52.263 43.2757 47.9331 43.5452 43.849C43.7059 41.396 43.1753 38.9471 42.0138 36.7805Z" fill="#1B293B"/>
<path d="M35.5493 20.4897C34.2127 22.2322 34.4986 24.9088 36.722 27.6109C38.9454 30.313 42.5255 29.0257 45.541 28.7344C48.5566 28.443 52.499 23.1244 53.4405 18.4667C54.3819 13.8091 53.6572 11.3127 49.4944 9.78508C45.3316 8.25741 39.3697 9.66854 34.5314 9.44276C27.8411 9.13322 25.3918 7.67656 21.1143 6.16528C17.9604 5.04548 16.744 4.68496 16.4544 6.02872C16.1649 7.37249 16.347 9.02579 20.0691 12.8186C24.017 16.8408 30.0026 19.175 31.2153 19.4828C32.4281 19.7905 35.5493 20.4897 35.5493 20.4897Z" fill="#1B293B"/>
<path d="M43.6673 38.0424C43.687 38.6049 43.6559 39.168 43.5744 39.7248C43.2102 42.4979 41.7534 46.1177 39.0001 48.1935C35.6276 50.7244 31.8163 50.2382 28.1397 51.1742C26.7885 51.5219 25.8052 52.2921 24.7017 53.117C22.7915 54.55 19.8397 56.5765 14.7045 56.531C10.762 56.4873 10.0409 52.822 9.42361 51.3617C9.18912 50.7641 9.02118 50.1425 8.92284 49.5081C8.56957 47.3632 8.66973 44.2386 10.9988 42.7237C14.2037 40.6352 15.1961 34.8614 15.1961 34.8614C15.0146 34.0072 15.0508 33.1211 15.3016 32.2845C15.5523 31.448 16.0095 30.688 16.6311 30.0745C18.7889 27.8531 18.4521 24.3025 19.439 23.3921C19.9107 22.9533 20.7319 23.0006 20.7319 23.0006C19.836 23.9656 20.2202 25.1965 20.2202 25.1965C20.2202 25.1965 21.1307 23.545 24.343 22.7329C25.6941 22.3924 28.3692 22.7566 28.3692 22.7566C28.3837 23.9693 29.3215 24.9288 29.3215 24.9288C29.3215 24.9288 31.0952 21.584 32.887 20.5753C34.6789 19.5665 35.8734 21.2053 35.8734 21.2053C34.7645 22.2978 35.3071 24.5173 36.4853 27.1521C37.6635 29.7868 40.6936 30.0854 40.6936 30.0854C42.4636 29.9725 43.4451 30.9011 43.8676 31.4547C43.9676 31.5755 44.0543 31.7067 44.1262 31.8461C46.9651 33.3902 51.0022 33.1626 51.0022 33.1626C49.2358 35.9448 43.6673 38.0424 43.6673 38.0424Z" fill="#838891"/>
<path d="M42.0211 36.7896C42.0393 37.0391 42.2232 41.1596 39.2896 42.9076C37.6252 43.9036 36.234 44.0693 33.4096 43.1443C32.1185 42.7201 31.7052 42.2831 31.7052 42.2831C31.7052 42.2831 29.673 42.8876 26.1931 46.2707C22.8388 49.5317 19.2351 49.7812 18.982 49.7958C16.7713 48.7925 16.4927 47.3741 17.9713 47.5744C18.8818 47.6964 19.9453 46.2998 20.4169 44.6847C22.2379 38.4375 26.1166 42.3468 29.4927 40.2219C33.1347 37.9258 31.4739 32.4561 31.4739 32.4561C31.0496 32.4561 32.6448 30.4532 34.8519 30.0763C34.8519 30.0763 32.5993 29.2933 31.3046 29.754C31.59 29.2658 31.9657 28.8363 32.4117 28.4885C28.3637 28.9874 23.3815 32.0227 22.4637 35.9339C22.1232 37.3905 20.4242 40.2091 19.6193 42.1629C18.4976 44.8941 16.5072 47.2066 13.8031 47.0409L8.92282 49.5081C9.01881 50.1422 9.1843 50.7638 9.41631 51.3617C10.0409 52.8183 10.762 56.4873 14.6972 56.531C19.8324 56.582 22.7842 54.5499 24.6944 53.1169C25.7979 52.2921 26.7812 51.5219 28.1324 51.1741C31.809 50.2382 35.6203 50.7244 38.9928 48.1934C41.7497 46.1177 43.1938 42.4979 43.5671 39.7248C42.826 37.8457 42.0648 36.857 42.0211 36.7896Z" fill="#50535A"/>
<path d="M27.6353 33.5741C24.5487 36.3782 25.1533 35.8701 24.6762 38.0551C24.6762 38.0551 25.1223 38.9929 27.1509 39.0894C29.673 39.2095 30.975 36.7478 31.3155 35.1327C31.6797 33.3738 31.5395 31.9262 31.1461 31.309C29.856 31.8597 28.6688 32.6257 27.6353 33.5741Z" fill="white"/>
<path d="M22.196 34.6648C22.196 34.6648 21.3201 36.613 22.7842 37.7693C22.29 38.9992 21.9073 40.271 21.6406 41.5693C21.6406 41.5693 23.762 38.6159 24.2992 38.3028C24.2992 38.3028 27.6298 39.5391 29.917 36.7423C31.3428 34.998 31.4812 32.4561 31.4812 32.4561C31.4812 32.4561 31.7962 31.482 34.8755 30.0799C34.8755 30.0799 31.8946 29.4135 28.4911 31.8316C25.0877 34.2496 23.7675 36.5803 23.7675 36.5803C23.368 36.4152 23.0154 36.154 22.7412 35.8198C22.467 35.4856 22.2797 35.0888 22.196 34.6648Z" fill="#1B293B"/>
<path d="M25.0422 37.1174C26.0091 35.9211 28.5622 33.6305 29.1012 33.321C29.1121 33.2937 29.764 34.8833 28.8189 36.2015C27.3148 38.3009 25.0422 37.1174 25.0422 37.1174Z" fill="#E2D8A7"/>
<path d="M28.3673 33.9346C28.615 34.459 28.4511 35.0945 27.821 35.5133C27.191 35.932 26 35.9211 26 35.9211C26.3313 35.5582 26.7042 35.2355 27.1108 34.9597C27.5606 34.6578 27.9812 34.3146 28.3673 33.9346Z" fill="white"/>
<path d="M27.12 34.9597C26.7558 35.2838 26.7321 35.495 27.0071 35.6225C27.282 35.75 28.0377 35.3494 28.0377 35.3494C27.8017 35.6758 27.4777 35.9284 27.1036 36.0777C25.8453 36.6494 25.5011 36.2598 25.5011 36.2598C25.6311 35.8853 25.8823 35.565 26.2149 35.3494C26.7794 34.9725 27.12 34.9597 27.12 34.9597Z" fill="#1B293B"/>
<path d="M48.2452 24.7103C45.9198 27.6418 42.0266 28.3083 40.0362 27.3578C38.0459 26.4073 36.9405 24.1568 37.5833 20.8629L38.4483 20.4605C40.1198 20.4776 41.7774 20.1562 43.3213 19.5155C45.5392 18.5705 46.5208 17.2268 46.5991 17.0993C46.5991 17.0993 46.5772 17.0993 46.5608 17.112C44.3838 17.7193 42.1392 18.0508 39.8796 18.0989C36.4416 18.1645 32.9963 17.7238 29.8478 16.533C22.1997 13.6197 19.4354 9.43182 18.5577 7.57823C18.4137 7.2843 18.2919 6.97998 18.1935 6.66782C18.3756 6.78071 25.8689 11.4839 34.7645 11.5567C43.762 11.6296 49.5727 10.1237 51.37 13.6853C53.1674 17.2468 50.5615 21.777 48.2452 24.7103Z" fill="#A59688"/>
<path d="M34.7553 11.5495C30.7037 11.5167 26.9506 10.5207 24.037 9.43549C24.9038 9.88929 25.7985 10.2876 26.7157 10.6281C27.7336 10.9777 31.3647 12.7385 39.9761 12.4908C41.0596 12.4599 42.5892 12.4599 43.6745 12.4435C49.1575 12.3652 50.7764 13.7599 51.7524 15.4824C51.82 15.6059 51.8808 15.7329 51.9345 15.863C51.892 15.1029 51.6949 14.3594 51.3555 13.678C49.5636 10.1165 43.7528 11.6223 34.7553 11.5495Z" fill="white"/>
<path d="M37.6544 22.6492C37.567 22.6273 37.4723 22.6091 37.3903 22.5909C37.3812 24.9416 38.3955 26.5967 40.0125 27.3542C42.0156 28.3046 45.9107 27.6419 48.2398 24.7085C49.3742 23.2773 50.567 21.462 51.2863 19.5647C48.0741 23.6706 42.4763 23.9219 37.6544 22.6492Z" fill="#625C58"/>
<path d="M11.6233 47.2211C10.1975 46.9699 9.71495 45.6134 7.72097 46.6749C6.57921 47.2776 5.91637 48.9655 6.88696 50.85C7.85755 52.7346 8.79171 53.3245 10.6801 53.8853C12.5684 54.4462 15.0413 55.1599 17.1136 53.7506C19.1859 52.3413 19.6193 49.9597 18.6706 48.3573C17.7218 46.755 14.8465 46.8369 13.8759 47.0245C12.9053 47.212 12.3372 47.3413 11.6233 47.2211Z" fill="#1B293B"/>
<path d="M8.65516 50.6188C8.10886 50.0726 8.34013 49.3442 8.80812 49.5427C9.27612 49.7412 9.55291 50.841 9.74411 51.4637C9.93531 52.0864 10.9605 52.3267 11.312 52.1246C11.6634 51.9225 12.4337 51.0594 13.0874 50.3985C13.7412 49.7375 14.8083 49.8268 15.1124 50.2783C15.4165 50.7299 15.2089 50.3548 15.2089 50.3548C15.2089 50.3548 14.4168 50.4622 14.0435 50.8173C13.6702 51.1723 14.954 50.8264 14.8902 51.3799C14.8265 51.9334 14.4004 52.5616 14.4004 52.5616C14.4004 52.5616 15.5658 53.0095 16.2942 51.9826C17.0226 50.9557 16.9625 49.692 15.9427 48.8271C14.923 47.9622 12.1587 48.8872 11.3174 48.7361C10.4761 48.585 9.7259 47.4761 8.77717 48.0933C7.82843 48.7106 7.80112 49.7503 8.09612 50.1581C8.22992 50.3662 8.42537 50.5272 8.65516 50.6188Z" fill="#625C58"/>
<path d="M9.56383 49.0929C9.89343 49.2896 9.96991 49.8595 11.6088 49.8431C12.4537 49.834 13.5154 49.3296 14.3712 49.3442C15.7698 49.3697 16.6748 50.2382 16.5801 51.4673C16.786 51.0205 16.8351 50.5173 16.7194 50.0391C16.6038 49.561 16.3301 49.1359 15.9427 48.8326C14.9212 47.9658 12.1587 48.8926 11.3174 48.7415C10.4761 48.5904 9.7259 47.4815 8.77716 48.0988C7.92312 48.645 7.81932 49.5445 8.01963 50.0161C8.08154 48.8835 9.10494 48.8216 9.56383 49.0929Z" fill="#A59688"/>
<path d="M8.52585 52.6381C9.54561 53.7306 10.0355 53.6068 10.9988 53.5922C12.1799 53.5843 13.357 53.73 14.5005 54.0256C17.0936 54.7284 18.2681 54.4407 19.6503 53.2553C20.9705 52.1246 22.369 50.8883 23.8385 49.0584C25.827 46.5729 26.5008 45.9848 27.1637 45.1891C28.0031 44.184 28.9446 43.27 29.6475 43.2845C30.0827 43.2955 30.5398 43.7197 30.8493 44.2878C31.6997 45.8537 31.5377 48.0824 30.9549 48.5576C29.9898 49.346 29.2214 48.6068 25.4446 50.3602C23.2176 51.3926 20.3805 55.8609 15.9955 55.4221C12.7888 55.1017 12.8999 54.2149 11.0406 54.5117C10.1119 54.661 9.03755 54.0474 8.64604 53.543C8.25453 53.0387 8.52585 52.6381 8.52585 52.6381Z" fill="#1B293B"/>
<path d="M27.5588 44.7576C27.5588 44.7576 28.4365 43.5176 29.6821 42.8858C30.9276 42.254 31.7161 42.2867 31.7161 42.2867C31.7161 42.2867 29.897 44.2459 29.2742 45.1563L27.5588 44.7576Z" fill="#1B293B"/>
<path d="M20.1328 63.8598C20.1328 63.8598 23.0956 66.8004 26.845 67.9239C26.845 67.9239 32.6157 60.6624 33.4169 51.846L28.9045 53.472C28.9045 53.472 25.288 61.2469 20.1328 63.8598Z" fill="#1B293B"/>
<path d="M34.9903 51.6075C34.9903 51.6075 35.2343 55.7353 31.9164 65.3019C31.9164 65.3019 36.7111 58.0714 38.492 52.9349C38.492 52.9349 38.3318 56.0849 38.0331 58.1734C38.0331 58.1734 43.0663 50.6971 43.4196 43.077C43.4196 43.077 42.8533 45.9903 39.5136 49.0857C38.2064 50.2441 36.663 51.1046 34.9903 51.6075Z" fill="#1B293B"/>
<path d="M36.0264 28.9765C36.793 27.4835 40.2383 24.6248 44.1972 24.5629C48.156 24.5009 51.7433 24.3699 53.3203 23.5013C54.8973 22.6328 55.4818 22.4762 55.4818 22.4762C55.4818 22.4762 55.1886 27.2704 53.3239 29.9416C51.4593 32.6127 49.1848 33.9747 46.3514 33.9801C43.5179 33.9856 43.7911 32.9059 43.7911 32.9059C43.7911 32.9059 40.8921 33.5522 37.6817 31.0668C36.9829 30.5003 36.4177 29.7866 36.0264 28.9765Z" fill="#1B293B"/>
<path d="M50.8674 29.734C50.5979 30.029 50.2957 30.3403 49.9569 30.6444C47.9939 32.4361 44.1207 33.9674 44.1207 33.9674L42.7549 33.2627C42.7549 33.2627 45.2078 32.5635 46.2931 31.3527C47.3784 30.1418 48.3636 29.1677 48.8571 29.1113C48.8571 29.1113 46.3714 28.4303 44.9948 28.8691L43.6126 29.3152C43.6045 29.0522 43.6504 28.7903 43.7475 28.5457C43.8446 28.3011 43.9908 28.079 44.1771 27.8931C44.1771 27.8931 40.3949 28.3829 40.588 30.5479C40.3837 30.3512 40.1598 30.1761 39.9197 30.0253C39.621 29.8542 39.306 29.4153 39.1239 28.403C40.1491 27.5481 41.3341 26.9057 42.6099 26.5131C43.8857 26.1205 45.2269 25.9855 46.5553 26.116C50.5233 26.5221 53.2311 25.1419 53.2311 25.1419C53.2311 25.1419 53.0508 27.2923 50.8674 29.734Z" fill="#838891"/>
<path d="M39.9197 30.0217C40.1598 30.1725 40.3837 30.3476 40.588 30.5443C40.3949 28.3793 44.1771 27.8895 44.1771 27.8895C43.9908 28.0754 43.8446 28.2974 43.7475 28.542C43.6504 28.7866 43.6045 29.0485 43.6126 29.3116L44.9966 28.8691C46.3733 28.4303 48.8589 29.1113 48.8589 29.1113C48.5311 29.1513 47.983 29.6065 47.3311 30.2566C47.6643 30.2766 47.9976 30.3021 48.329 30.3385C48.899 30.4041 49.4689 30.4878 50.0371 30.5698C50.3412 30.2893 50.6198 30.0053 50.8674 29.734C53.0526 27.2923 53.2347 25.1382 53.2347 25.1382C53.2347 25.1382 50.5269 26.5184 46.559 26.1124C45.2296 25.9821 43.8875 26.1177 42.611 26.5113C41.3345 26.9049 40.1491 27.5485 39.1239 28.4048C39.306 29.4117 39.621 29.8505 39.9197 30.0217Z" fill="#50535A"/>
<path d="M47.617 15.608C47.617 15.608 47.4003 16.3163 46.5699 17.112C44.39 17.72 42.1423 18.0516 39.8796 18.0989C36.4416 18.1645 32.9963 17.7238 29.8478 16.533C22.1997 13.6197 19.4354 9.43182 18.5577 7.57823C18.4137 7.2843 18.2919 6.97998 18.1935 6.66782C18.3355 6.90999 20.0891 10.4333 26.7303 12.5199C38.3846 16.1798 44.758 14.0094 44.758 14.0094C44.758 14.0094 44.1462 15.4879 42.9917 16.4256C44.5654 16.3829 46.124 16.1074 47.617 15.608Z" fill="#625C58"/>
<path d="M24.851 49.6538C26.581 48.33 29.0138 45.2619 29.4945 44.9688C29.4945 44.9688 29.7112 44.9888 29.8587 45.5551C30.0062 46.1214 29.9716 47.4032 29.5819 47.4415C28.1689 47.5798 24.851 49.6538 24.851 49.6538Z" fill="#D3D1CA"/>
<path d="M14.6262 33.1881C14.6061 34.3862 14.7172 34.8468 15.5166 34.5938C15.9786 34.457 16.389 34.1849 16.6948 33.8126C16.6948 33.8126 15.7442 36.7988 14.5533 36.5202C13.3624 36.2416 14.6262 33.1881 14.6262 33.1881Z" fill="#1B293B"/>
<path d="M14.8174 46.9244C15.6586 46.9407 18.9455 45.8992 19.9489 44.7703C19.9489 44.7703 19.5282 47.9258 17.4141 47.9586C15.2999 47.9914 14.8174 46.9244 14.8174 46.9244Z" fill="#1B293B"/>
<path d="M48.6677 71.2323C48.6677 71.2323 52.8377 52.0336 48.1578 41.5693C48.1578 41.5693 56.8148 50.8209 54.9464 69.5389L48.6677 71.2323Z" fill="#1B293B"/>
<path d="M50.8674 29.734C53.0526 27.2923 53.2347 25.1382 53.2347 25.1382C53.2347 25.1382 50.5269 26.5184 46.559 26.1124C44.4264 25.8986 42.2816 26.3754 40.4405 27.4725C43.4815 26.5621 44.7034 26.7642 46.2676 26.9591C48.1147 27.1701 49.9738 27.2571 51.8326 27.2194C51.8326 27.2194 51.9673 27.9296 50.8784 29.7067C50.8784 29.714 50.8693 29.7267 50.8674 29.734Z" fill="white"/>
<path d="M53.466 67.2993C53.466 67.2993 57.9329 60.2564 56.6564 49.9669C56.6564 49.9669 60.2983 56.2287 59.9906 62.8693C60.6316 60.2016 61.4176 57.5709 62.3451 54.9888C62.3451 54.9888 63.76 47.8402 59.3678 39.073C59.3678 39.073 66.1401 44.5518 68.2433 53.8362C68.2433 53.8362 61.1069 67.8383 53.8138 69.3277L53.466 67.2993Z" fill="#1B293B"/>
<path d="M36.9314 72.5306C36.9314 72.5306 43.5671 58.2662 45.1004 48.3482C45.1004 48.3482 45.1823 59.5299 41.0487 72.3139L36.9314 72.5306Z" fill="#1B293B"/>
<path d="M26.3861 14.9871C28.0577 15.0836 30.2611 14.7869 31.4211 13.5305C31.4211 13.5305 30.7747 16.3637 28.4656 16.6259C26.7958 16.8335 26.3861 14.9871 26.3861 14.9871Z" fill="#1B293B"/>
<path d="M11.3866 27.143C13.0583 27.0374 15.2107 26.4784 16.2104 25.0945C16.2104 25.0945 16.1904 27.7366 13.9324 28.2828C12.2971 28.6779 11.3866 27.143 11.3866 27.143Z" fill="#1B293B"/>
<path d="M7.17651 24.7449C8.38929 24.8141 9.32164 24.947 10.7529 24.0912C10.7529 24.0912 10.6564 25.9248 9.13407 25.9121C7.91401 25.8975 7.17651 24.7449 7.17651 24.7449Z" fill="#1B293B"/>
<path d="M21.2291 12.2486C23.529 12.5964 25.1915 12.1285 25.5758 11.7825C25.5758 11.7825 24.993 13.4012 23.5035 13.3957C23.0622 13.3892 22.6283 13.2826 22.2343 13.0839C21.8403 12.8852 21.4965 12.5996 21.2291 12.2486Z" fill="#1B293B"/>
<path d="M32.6776 17.4252C35.5675 16.6842 36.9278 15.1219 37.4686 14.0913C37.4686 14.0913 37.6052 16.7224 35.6003 18.0079C33.9668 19.0567 32.6776 17.4252 32.6776 17.4252Z" fill="#1B293B"/>
<path d="M38.4228 18.352C42.1741 17.4088 44.0333 15.2239 44.7599 14.0094C44.7599 14.0094 44.9529 17.1649 42.3307 18.7162C40.1965 19.9817 38.4228 18.352 38.4228 18.352Z" fill="#1B293B"/>
</g>
</g>
<defs>
<clipPath id="clip0_6_264">
<rect width="72" height="70.5695" fill="white"/>
</clipPath>
</defs>
</svg>
